<mxfile host="app.diagrams.net" modified="2022-03-28T14:14:09.073Z" agent="5.0 (Windows NT 10.0; Win64; x64) AppleWebKit/537.36 (KHTML, like Gecko) Chrome/99.0.4844.88 Safari/537.36" etag="MOSGfDdoFsDb9v9HpT3K" version="17.2.4" type="github" pages="7">
  <diagram id="C5RBs43oDa-KdzZeNtuy" name="Page-1">
    <mxGraphModel dx="1865" dy="543" grid="1" gridSize="10" guides="1" tooltips="1" connect="1" arrows="1" fold="1" page="1" pageScale="1" pageWidth="827" pageHeight="1169" math="0" shadow="0">
      <root>
        <mxCell id="WIyWlLk6GJQsqaUBKTNV-0" />
        <mxCell id="WIyWlLk6GJQsqaUBKTNV-1" parent="WIyWlLk6GJQsqaUBKTNV-0" />
        <mxCell id="k5JjQ7OStodDkBpueqfI-20" value="load" style="edgeStyle=orthogonalEdgeStyle;rounded=0;orthogonalLoop=1;jettySize=auto;html=1;exitX=0.5;exitY=1;exitDx=0;exitDy=0;entryX=0.5;entryY=0;entryDx=0;entryDy=0;endArrow=none;endFill=0;endSize=12;" parent="WIyWlLk6GJQsqaUBKTNV-1" source="k5JjQ7OStodDkBpueqfI-17" target="k5JjQ7OStodDkBpueqfI-19" edge="1">
          <mxGeometry relative="1" as="geometry" />
        </mxCell>
        <mxCell id="i8XjN8ht5MtOGw8gsyw_-6" value="uses" style="edgeStyle=orthogonalEdgeStyle;rounded=0;orthogonalLoop=1;jettySize=auto;html=1;exitX=1;exitY=0.5;exitDx=0;exitDy=0;entryX=0;entryY=0.5;entryDx=0;entryDy=0;startArrow=none;startFill=0;endArrow=none;endFill=0;startSize=12;endSize=12;" parent="WIyWlLk6GJQsqaUBKTNV-1" source="k5JjQ7OStodDkBpueqfI-17" target="k5JjQ7OStodDkBpueqfI-41" edge="1">
          <mxGeometry relative="1" as="geometry" />
        </mxCell>
        <mxCell id="k5JjQ7OStodDkBpueqfI-17" value="&lt;p style=&quot;margin: 0px ; margin-top: 4px ; text-align: center&quot;&gt;&lt;i&gt;&amp;lt;&amp;lt;Object&amp;gt;&amp;gt;&lt;/i&gt;&lt;br&gt;&lt;b&gt;App&lt;/b&gt;&lt;/p&gt;&lt;hr size=&quot;1&quot;&gt;&lt;p style=&quot;margin: 0px ; margin-left: 4px&quot;&gt;+ configuration: Configuration&lt;/p&gt;&lt;p style=&quot;margin: 0px ; margin-left: 4px&quot;&gt;+ main(args: Array[String])&amp;nbsp;&lt;/p&gt;&lt;p style=&quot;margin: 0px ; margin-left: 4px&quot;&gt;&lt;br&gt;&lt;/p&gt;" style="verticalAlign=top;align=left;overflow=fill;fontSize=12;fontFamily=Helvetica;html=1;" parent="WIyWlLk6GJQsqaUBKTNV-1" vertex="1">
          <mxGeometry x="810" y="490" width="200" height="110" as="geometry" />
        </mxCell>
        <mxCell id="k5JjQ7OStodDkBpueqfI-18" value="&lt;p style=&quot;margin: 0px ; margin-top: 4px ; text-align: center&quot;&gt;&lt;i&gt;&amp;lt;&amp;lt;Object&amp;gt;&amp;gt;&lt;/i&gt;&lt;br&gt;&lt;b&gt;Generators&lt;/b&gt;&lt;/p&gt;&lt;hr size=&quot;1&quot;&gt;&lt;p style=&quot;margin: 0px ; margin-left: 4px&quot;&gt;+ addAllGeneratorsToBlockly()&lt;/p&gt;" style="verticalAlign=top;align=left;overflow=fill;fontSize=12;fontFamily=Helvetica;html=1;" parent="WIyWlLk6GJQsqaUBKTNV-1" vertex="1">
          <mxGeometry x="960" y="280" width="200" height="110" as="geometry" />
        </mxCell>
        <mxCell id="k5JjQ7OStodDkBpueqfI-19" value="&lt;p style=&quot;margin: 0px ; margin-top: 4px ; text-align: center&quot;&gt;&lt;i&gt;&amp;lt;&amp;lt;Interface&amp;gt;&amp;gt;&lt;/i&gt;&lt;br&gt;&lt;b&gt;Configuration&lt;/b&gt;&lt;/p&gt;&lt;hr size=&quot;1&quot;&gt;&lt;p style=&quot;margin: 0px ; margin-left: 4px&quot;&gt;+ environment: Environment&lt;/p&gt;" style="verticalAlign=top;align=left;overflow=fill;fontSize=12;fontFamily=Helvetica;html=1;" parent="WIyWlLk6GJQsqaUBKTNV-1" vertex="1">
          <mxGeometry x="825" y="660" width="170" height="70" as="geometry" />
        </mxCell>
        <mxCell id="k5JjQ7OStodDkBpueqfI-21" value="&lt;p style=&quot;margin: 0px ; margin-top: 4px ; text-align: center&quot;&gt;&lt;i&gt;&amp;lt;&amp;lt;Interface&amp;gt;&amp;gt;&lt;/i&gt;&lt;br&gt;&lt;span style=&quot;text-align: left&quot;&gt;&lt;b&gt;Environment&lt;/b&gt;&lt;/span&gt;&lt;br&gt;&lt;/p&gt;&lt;hr size=&quot;1&quot;&gt;&lt;p style=&quot;margin: 0px ; margin-left: 4px&quot;&gt;+ workspace: Workspace&lt;/p&gt;&lt;p style=&quot;margin: 0px ; margin-left: 4px&quot;&gt;+ output: Output&lt;/p&gt;&lt;p style=&quot;margin: 0px ; margin-left: 4px&quot;&gt;+ toolbox: Toolbox&lt;/p&gt;" style="verticalAlign=top;align=left;overflow=fill;fontSize=12;fontFamily=Helvetica;html=1;" parent="WIyWlLk6GJQsqaUBKTNV-1" vertex="1">
          <mxGeometry x="530" y="880" width="220" height="110" as="geometry" />
        </mxCell>
        <mxCell id="k5JjQ7OStodDkBpueqfI-25" style="edgeStyle=orthogonalEdgeStyle;rounded=0;orthogonalLoop=1;jettySize=auto;html=1;exitX=0.5;exitY=0;exitDx=0;exitDy=0;entryX=0.5;entryY=1;entryDx=0;entryDy=0;endArrow=block;endFill=0;endSize=12;" parent="WIyWlLk6GJQsqaUBKTNV-1" source="k5JjQ7OStodDkBpueqfI-22" target="k5JjQ7OStodDkBpueqfI-21" edge="1">
          <mxGeometry relative="1" as="geometry" />
        </mxCell>
        <mxCell id="k5JjQ7OStodDkBpueqfI-22" value="&lt;p style=&quot;margin: 0px ; margin-top: 4px ; text-align: center&quot;&gt;&lt;i&gt;&amp;lt;&amp;lt;Interface&amp;gt;&amp;gt;&lt;/i&gt;&lt;br&gt;&lt;b&gt;Workspace&lt;/b&gt;&lt;/p&gt;&lt;hr size=&quot;1&quot;&gt;&lt;p style=&quot;margin: 0px ; margin-left: 4px&quot;&gt;&lt;span&gt;+ getBlocks(): Seq[Blocks]&lt;/span&gt;&lt;br&gt;&lt;/p&gt;" style="verticalAlign=top;align=left;overflow=fill;fontSize=12;fontFamily=Helvetica;html=1;" parent="WIyWlLk6GJQsqaUBKTNV-1" vertex="1">
          <mxGeometry x="400" y="1040" width="150" height="80" as="geometry" />
        </mxCell>
        <mxCell id="k5JjQ7OStodDkBpueqfI-26" style="edgeStyle=orthogonalEdgeStyle;rounded=0;orthogonalLoop=1;jettySize=auto;html=1;exitX=0.5;exitY=0;exitDx=0;exitDy=0;endArrow=block;endFill=0;endSize=12;" parent="WIyWlLk6GJQsqaUBKTNV-1" source="k5JjQ7OStodDkBpueqfI-23" edge="1">
          <mxGeometry relative="1" as="geometry">
            <mxPoint x="640" y="990" as="targetPoint" />
          </mxGeometry>
        </mxCell>
        <mxCell id="k5JjQ7OStodDkBpueqfI-23" value="&lt;p style=&quot;margin: 0px ; margin-top: 4px ; text-align: center&quot;&gt;&lt;i&gt;&amp;lt;&amp;lt;Interface&amp;gt;&amp;gt;&lt;/i&gt;&lt;br&gt;&lt;b&gt;Output&lt;/b&gt;&lt;/p&gt;&lt;hr size=&quot;1&quot;&gt;&lt;p style=&quot;margin: 0px 0px 0px 4px&quot;&gt;+ getCode: String&lt;/p&gt;&lt;p style=&quot;margin: 0px 0px 0px 4px&quot;&gt;+ setCode: String&lt;/p&gt;" style="verticalAlign=top;align=left;overflow=fill;fontSize=12;fontFamily=Helvetica;html=1;" parent="WIyWlLk6GJQsqaUBKTNV-1" vertex="1">
          <mxGeometry x="570" y="1040" width="140" height="80" as="geometry" />
        </mxCell>
        <mxCell id="k5JjQ7OStodDkBpueqfI-27" style="edgeStyle=orthogonalEdgeStyle;rounded=0;orthogonalLoop=1;jettySize=auto;html=1;exitX=0.5;exitY=0;exitDx=0;exitDy=0;entryX=0.5;entryY=1;entryDx=0;entryDy=0;endArrow=block;endFill=0;endSize=12;" parent="WIyWlLk6GJQsqaUBKTNV-1" source="k5JjQ7OStodDkBpueqfI-24" target="k5JjQ7OStodDkBpueqfI-21" edge="1">
          <mxGeometry relative="1" as="geometry" />
        </mxCell>
        <mxCell id="k5JjQ7OStodDkBpueqfI-29" style="edgeStyle=orthogonalEdgeStyle;rounded=0;orthogonalLoop=1;jettySize=auto;html=1;exitX=0.5;exitY=1;exitDx=0;exitDy=0;endArrow=none;endFill=0;endSize=12;startArrow=diamond;startFill=1;startSize=12;" parent="WIyWlLk6GJQsqaUBKTNV-1" source="k5JjQ7OStodDkBpueqfI-24" target="k5JjQ7OStodDkBpueqfI-28" edge="1">
          <mxGeometry relative="1" as="geometry" />
        </mxCell>
        <mxCell id="k5JjQ7OStodDkBpueqfI-24" value="&lt;p style=&quot;margin: 0px ; margin-top: 4px ; text-align: center&quot;&gt;&lt;i&gt;&amp;lt;&amp;lt;Interface&amp;gt;&amp;gt;&lt;/i&gt;&lt;br&gt;&lt;b&gt;Toolbox&lt;/b&gt;&lt;/p&gt;&lt;hr size=&quot;1&quot;&gt;&lt;p style=&quot;margin: 0px ; margin-left: 4px&quot;&gt;&lt;br&gt;&lt;/p&gt;" style="verticalAlign=top;align=left;overflow=fill;fontSize=12;fontFamily=Helvetica;html=1;" parent="WIyWlLk6GJQsqaUBKTNV-1" vertex="1">
          <mxGeometry x="730" y="1040" width="140" height="80" as="geometry" />
        </mxCell>
        <mxCell id="k5JjQ7OStodDkBpueqfI-34" style="edgeStyle=orthogonalEdgeStyle;rounded=0;orthogonalLoop=1;jettySize=auto;html=1;exitX=0.5;exitY=1;exitDx=0;exitDy=0;entryX=0.5;entryY=0;entryDx=0;entryDy=0;startArrow=diamond;startFill=1;endArrow=none;endFill=0;startSize=12;endSize=12;" parent="WIyWlLk6GJQsqaUBKTNV-1" source="k5JjQ7OStodDkBpueqfI-28" target="k5JjQ7OStodDkBpueqfI-31" edge="1">
          <mxGeometry relative="1" as="geometry" />
        </mxCell>
        <mxCell id="k5JjQ7OStodDkBpueqfI-28" value="&lt;p style=&quot;margin: 0px ; margin-top: 4px ; text-align: center&quot;&gt;&lt;i&gt;&amp;lt;&amp;lt;Interface&amp;gt;&amp;gt;&lt;/i&gt;&lt;br&gt;&lt;b&gt;Category&lt;/b&gt;&lt;/p&gt;&lt;hr size=&quot;1&quot;&gt;&lt;p style=&quot;margin: 0px ; margin-left: 4px&quot;&gt;+ name: String&lt;/p&gt;&lt;p style=&quot;margin: 0px ; margin-left: 4px&quot;&gt;+ blocks: Seq[BlockType]&lt;/p&gt;" style="verticalAlign=top;align=left;overflow=fill;fontSize=12;fontFamily=Helvetica;html=1;" parent="WIyWlLk6GJQsqaUBKTNV-1" vertex="1">
          <mxGeometry x="725" y="1180" width="150" height="80" as="geometry" />
        </mxCell>
        <mxCell id="k5JjQ7OStodDkBpueqfI-30" value="n" style="text;html=1;align=center;verticalAlign=middle;resizable=0;points=[];autosize=1;strokeColor=none;fillColor=none;" parent="WIyWlLk6GJQsqaUBKTNV-1" vertex="1">
          <mxGeometry x="800" y="1160" width="20" height="20" as="geometry" />
        </mxCell>
        <mxCell id="k5JjQ7OStodDkBpueqfI-31" value="&lt;p style=&quot;margin: 0px ; margin-top: 4px ; text-align: center&quot;&gt;&lt;i&gt;&amp;lt;&amp;lt;Interface&amp;gt;&amp;gt;&lt;/i&gt;&lt;br&gt;&lt;b&gt;BlockType&lt;/b&gt;&lt;/p&gt;&lt;p style=&quot;margin: 0px ; margin-left: 4px&quot;&gt;&lt;br&gt;&lt;/p&gt;" style="verticalAlign=top;align=left;overflow=fill;fontSize=12;fontFamily=Helvetica;html=1;" parent="WIyWlLk6GJQsqaUBKTNV-1" vertex="1">
          <mxGeometry x="755" y="1320" width="90" height="40" as="geometry" />
        </mxCell>
        <mxCell id="k5JjQ7OStodDkBpueqfI-35" value="n" style="text;html=1;align=center;verticalAlign=middle;resizable=0;points=[];autosize=1;strokeColor=none;fillColor=none;" parent="WIyWlLk6GJQsqaUBKTNV-1" vertex="1">
          <mxGeometry x="800" y="1300" width="20" height="20" as="geometry" />
        </mxCell>
        <mxCell id="k5JjQ7OStodDkBpueqfI-41" value="&lt;p style=&quot;margin: 4px 0px 0px ; text-align: center&quot;&gt;&lt;i&gt;&amp;lt;&amp;lt;Interface&amp;gt;&amp;gt;&lt;/i&gt;&lt;br&gt;&lt;span style=&quot;text-align: left&quot;&gt;&lt;b&gt;ConfigurationLoader&lt;/b&gt;&lt;/span&gt;&lt;br&gt;&lt;/p&gt;&lt;hr size=&quot;1&quot;&gt;&lt;p style=&quot;margin: 0px ; margin-left: 4px&quot;&gt;+ abstract load(data: String): Configuration&lt;/p&gt;" style="verticalAlign=top;align=left;overflow=fill;fontSize=12;fontFamily=Helvetica;html=1;" parent="WIyWlLk6GJQsqaUBKTNV-1" vertex="1">
          <mxGeometry x="1070" y="510" width="235" height="70" as="geometry" />
        </mxCell>
        <mxCell id="k5JjQ7OStodDkBpueqfI-43" style="edgeStyle=orthogonalEdgeStyle;rounded=0;orthogonalLoop=1;jettySize=auto;html=1;exitX=0.5;exitY=0;exitDx=0;exitDy=0;entryX=0.5;entryY=1;entryDx=0;entryDy=0;startArrow=none;startFill=0;endArrow=block;endFill=0;startSize=12;endSize=12;dashed=1;" parent="WIyWlLk6GJQsqaUBKTNV-1" source="k5JjQ7OStodDkBpueqfI-42" target="k5JjQ7OStodDkBpueqfI-41" edge="1">
          <mxGeometry relative="1" as="geometry" />
        </mxCell>
        <mxCell id="k5JjQ7OStodDkBpueqfI-45" value="uses" style="edgeStyle=orthogonalEdgeStyle;rounded=0;orthogonalLoop=1;jettySize=auto;html=1;exitX=1;exitY=0.5;exitDx=0;exitDy=0;entryX=0;entryY=0.5;entryDx=0;entryDy=0;startArrow=none;startFill=0;endArrow=none;endFill=0;startSize=12;endSize=12;" parent="WIyWlLk6GJQsqaUBKTNV-1" source="k5JjQ7OStodDkBpueqfI-42" target="k5JjQ7OStodDkBpueqfI-44" edge="1">
          <mxGeometry relative="1" as="geometry" />
        </mxCell>
        <mxCell id="k5JjQ7OStodDkBpueqfI-42" value="&lt;p style=&quot;margin: 4px 0px 0px ; text-align: center&quot;&gt;&lt;i&gt;&amp;lt;&amp;lt;Interface&amp;gt;&amp;gt;&lt;/i&gt;&lt;br&gt;&lt;span style=&quot;text-align: left&quot;&gt;&lt;b&gt;XMLConfigurationLoader&lt;/b&gt;&lt;/span&gt;&lt;br&gt;&lt;/p&gt;&lt;hr size=&quot;1&quot;&gt;&lt;p style=&quot;margin: 0px ; margin-left: 4px&quot;&gt;+ load(xml: String): Configuration&lt;/p&gt;" style="verticalAlign=top;align=left;overflow=fill;fontSize=12;fontFamily=Helvetica;html=1;" parent="WIyWlLk6GJQsqaUBKTNV-1" vertex="1">
          <mxGeometry x="1095" y="640" width="185" height="70" as="geometry" />
        </mxCell>
        <mxCell id="k5JjQ7OStodDkBpueqfI-44" value="&lt;p style=&quot;margin: 4px 0px 0px ; text-align: center&quot;&gt;&lt;i&gt;&amp;lt;&amp;lt;Interface&amp;gt;&amp;gt;&lt;/i&gt;&lt;br&gt;&lt;span style=&quot;text-align: left&quot;&gt;&lt;b&gt;XMLConfigurationGetter&lt;/b&gt;&lt;/span&gt;&lt;br&gt;&lt;/p&gt;&lt;hr size=&quot;1&quot;&gt;&lt;p style=&quot;margin: 0px ; margin-left: 4px&quot;&gt;+ get(url: String): String&lt;/p&gt;" style="verticalAlign=top;align=left;overflow=fill;fontSize=12;fontFamily=Helvetica;html=1;" parent="WIyWlLk6GJQsqaUBKTNV-1" vertex="1">
          <mxGeometry x="1362.5" y="640" width="185" height="70" as="geometry" />
        </mxCell>
        <mxCell id="i8XjN8ht5MtOGw8gsyw_-1" value="retrieve" style="edgeStyle=orthogonalEdgeStyle;rounded=0;orthogonalLoop=1;jettySize=auto;html=1;exitX=1;exitY=0.5;exitDx=0;exitDy=0;startArrow=none;startFill=0;endArrow=none;endFill=0;startSize=12;endSize=12;" parent="WIyWlLk6GJQsqaUBKTNV-1" source="i8XjN8ht5MtOGw8gsyw_-0" target="k5JjQ7OStodDkBpueqfI-22" edge="1">
          <mxGeometry relative="1" as="geometry" />
        </mxCell>
        <mxCell id="i8XjN8ht5MtOGw8gsyw_-3" value="use" style="edgeStyle=orthogonalEdgeStyle;rounded=0;orthogonalLoop=1;jettySize=auto;html=1;exitX=0.5;exitY=1;exitDx=0;exitDy=0;entryX=0.5;entryY=0;entryDx=0;entryDy=0;startArrow=none;startFill=0;endArrow=none;endFill=0;startSize=12;endSize=12;" parent="WIyWlLk6GJQsqaUBKTNV-1" source="i8XjN8ht5MtOGw8gsyw_-0" target="i8XjN8ht5MtOGw8gsyw_-2" edge="1">
          <mxGeometry relative="1" as="geometry" />
        </mxCell>
        <mxCell id="i8XjN8ht5MtOGw8gsyw_-0" value="&lt;p style=&quot;margin: 0px ; margin-top: 4px ; text-align: center&quot;&gt;&lt;i&gt;&amp;lt;&amp;lt;Interface&amp;gt;&amp;gt;&lt;/i&gt;&lt;br&gt;&lt;b&gt;WorkspaceLoader&lt;/b&gt;&lt;/p&gt;&lt;hr size=&quot;1&quot;&gt;&lt;p style=&quot;margin: 0px ; margin-left: 4px&quot;&gt;&lt;span&gt;+ load(path: String): Workspace&lt;/span&gt;&lt;br&gt;&lt;/p&gt;" style="verticalAlign=top;align=left;overflow=fill;fontSize=12;fontFamily=Helvetica;html=1;" parent="WIyWlLk6GJQsqaUBKTNV-1" vertex="1">
          <mxGeometry x="110" y="1040" width="180" height="80" as="geometry" />
        </mxCell>
        <mxCell id="i8XjN8ht5MtOGw8gsyw_-5" value="uses" style="edgeStyle=orthogonalEdgeStyle;rounded=0;orthogonalLoop=1;jettySize=auto;html=1;exitX=0.5;exitY=1;exitDx=0;exitDy=0;entryX=0.5;entryY=0;entryDx=0;entryDy=0;startArrow=none;startFill=0;endArrow=none;endFill=0;startSize=12;endSize=12;" parent="WIyWlLk6GJQsqaUBKTNV-1" source="i8XjN8ht5MtOGw8gsyw_-2" target="i8XjN8ht5MtOGw8gsyw_-4" edge="1">
          <mxGeometry relative="1" as="geometry" />
        </mxCell>
        <mxCell id="i8XjN8ht5MtOGw8gsyw_-2" value="&lt;p style=&quot;margin: 0px ; margin-top: 4px ; text-align: center&quot;&gt;&lt;i&gt;&amp;lt;&amp;lt;Interface&amp;gt;&amp;gt;&lt;/i&gt;&lt;br&gt;&lt;b&gt;WorkspaceParser&lt;/b&gt;&lt;/p&gt;&lt;hr size=&quot;1&quot;&gt;&lt;p style=&quot;margin: 0px ; margin-left: 4px&quot;&gt;&lt;span&gt;+ parse(plain: String): Workspace&lt;/span&gt;&lt;br&gt;&lt;/p&gt;" style="verticalAlign=top;align=left;overflow=fill;fontSize=12;fontFamily=Helvetica;html=1;" parent="WIyWlLk6GJQsqaUBKTNV-1" vertex="1">
          <mxGeometry x="105" y="1180" width="190" height="80" as="geometry" />
        </mxCell>
        <mxCell id="i8XjN8ht5MtOGw8gsyw_-4" value="&lt;p style=&quot;margin: 0px ; margin-top: 4px ; text-align: center&quot;&gt;&lt;i&gt;&amp;lt;&amp;lt;Interface&amp;gt;&amp;gt;&lt;/i&gt;&lt;br&gt;&lt;b&gt;WorkspaceBuilder&lt;/b&gt;&lt;/p&gt;&lt;hr size=&quot;1&quot;&gt;&lt;p style=&quot;margin: 0px ; margin-left: 4px&quot;&gt;&lt;span&gt;+ addBlock(block: Block): WorkspaceBuilder&lt;/span&gt;&lt;br&gt;&lt;/p&gt;&lt;p style=&quot;margin: 0px ; margin-left: 4px&quot;&gt;&lt;span&gt;+ build(): Workspace&lt;/span&gt;&lt;/p&gt;" style="verticalAlign=top;align=left;overflow=fill;fontSize=12;fontFamily=Helvetica;html=1;" parent="WIyWlLk6GJQsqaUBKTNV-1" vertex="1">
          <mxGeometry x="72.5" y="1320" width="255" height="80" as="geometry" />
        </mxCell>
        <mxCell id="ELq57BViCS6aakN5Yo8B-2" style="edgeStyle=orthogonalEdgeStyle;rounded=0;orthogonalLoop=1;jettySize=auto;html=1;exitX=0.5;exitY=1;exitDx=0;exitDy=0;entryX=0.5;entryY=0;entryDx=0;entryDy=0;startArrow=none;startFill=0;endArrow=none;endFill=0;startSize=12;endSize=12;" parent="WIyWlLk6GJQsqaUBKTNV-1" source="ELq57BViCS6aakN5Yo8B-0" target="ELq57BViCS6aakN5Yo8B-1" edge="1">
          <mxGeometry relative="1" as="geometry" />
        </mxCell>
        <mxCell id="ELq57BViCS6aakN5Yo8B-0" value="&lt;p style=&quot;margin: 0px ; margin-top: 4px ; text-align: center&quot;&gt;&lt;i&gt;&amp;lt;&amp;lt;js.Object&amp;gt;&amp;gt;&lt;/i&gt;&lt;br&gt;&lt;b&gt;Blockly&lt;/b&gt;&lt;/p&gt;&lt;hr size=&quot;1&quot;&gt;&lt;p style=&quot;margin: 0px ; margin-left: 4px&quot;&gt;&lt;br&gt;&lt;/p&gt;" style="verticalAlign=top;align=left;overflow=fill;fontSize=12;fontFamily=Helvetica;html=1;" parent="WIyWlLk6GJQsqaUBKTNV-1" vertex="1">
          <mxGeometry x="-160" y="690" width="140" height="70" as="geometry" />
        </mxCell>
        <mxCell id="ELq57BViCS6aakN5Yo8B-1" value="&lt;p style=&quot;margin: 0px ; margin-top: 4px ; text-align: center&quot;&gt;&lt;i&gt;&amp;lt;&amp;lt;js.Object&amp;gt;&amp;gt;&lt;/i&gt;&lt;br&gt;&lt;b&gt;ScaFi&lt;/b&gt;&lt;/p&gt;&lt;hr size=&quot;1&quot;&gt;&lt;p style=&quot;margin: 0px ; margin-left: 4px&quot;&gt;&lt;br&gt;&lt;/p&gt;" style="verticalAlign=top;align=left;overflow=fill;fontSize=12;fontFamily=Helvetica;html=1;" parent="WIyWlLk6GJQsqaUBKTNV-1" vertex="1">
          <mxGeometry x="-160" y="810" width="140" height="70" as="geometry" />
        </mxCell>
        <mxCell id="mR4osN126BwDwBqefguw-2" style="edgeStyle=orthogonalEdgeStyle;rounded=0;orthogonalLoop=1;jettySize=auto;html=1;exitX=1;exitY=0.5;exitDx=0;exitDy=0;entryX=0;entryY=0.5;entryDx=0;entryDy=0;startArrow=none;startFill=0;endArrow=block;endFill=0;startSize=12;endSize=12;" parent="WIyWlLk6GJQsqaUBKTNV-1" source="mR4osN126BwDwBqefguw-0" target="mR4osN126BwDwBqefguw-1" edge="1">
          <mxGeometry relative="1" as="geometry" />
        </mxCell>
        <mxCell id="mR4osN126BwDwBqefguw-0" value="&lt;p style=&quot;margin: 0px ; margin-top: 4px ; text-align: center&quot;&gt;&lt;i&gt;&amp;lt;&amp;lt;Object&amp;gt;&amp;gt;&lt;/i&gt;&lt;br&gt;&lt;b&gt;App&lt;/b&gt;&lt;/p&gt;&lt;hr size=&quot;1&quot;&gt;&lt;p style=&quot;margin: 0px ; margin-left: 4px&quot;&gt;+ controllers: ControllersWrapper&lt;/p&gt;&lt;p style=&quot;margin: 0px ; margin-left: 4px&quot;&gt;+ blockly: Blockly&lt;/p&gt;" style="verticalAlign=top;align=left;overflow=fill;fontSize=12;fontFamily=Helvetica;html=1;" parent="WIyWlLk6GJQsqaUBKTNV-1" vertex="1">
          <mxGeometry x="1060" y="1750" width="190" height="100" as="geometry" />
        </mxCell>
        <mxCell id="mR4osN126BwDwBqefguw-1" value="&lt;p style=&quot;margin: 0px ; margin-top: 4px ; text-align: center&quot;&gt;&lt;i&gt;&amp;lt;&amp;lt;Interface&amp;gt;&amp;gt;&lt;/i&gt;&lt;br&gt;&lt;b&gt;ControllersWrapper&lt;/b&gt;&lt;/p&gt;&lt;hr size=&quot;1&quot;&gt;&lt;p style=&quot;margin: 0px ; margin-left: 4px&quot;&gt;+ workspace: WorkspaceController&lt;/p&gt;&lt;p style=&quot;margin: 0px ; margin-left: 4px&quot;&gt;+ output: OutputController&lt;/p&gt;" style="verticalAlign=top;align=left;overflow=fill;fontSize=12;fontFamily=Helvetica;html=1;" parent="WIyWlLk6GJQsqaUBKTNV-1" vertex="1">
          <mxGeometry x="1321" y="1730" width="199" height="140" as="geometry" />
        </mxCell>
      </root>
    </mxGraphModel>
  </diagram>
  <diagram id="L3irW4nQHSCanulOY37z" name="Environment">
    <mxGraphModel dx="1038" dy="543" grid="1" gridSize="10" guides="1" tooltips="1" connect="1" arrows="1" fold="1" page="1" pageScale="1" pageWidth="850" pageHeight="1100" math="0" shadow="0">
      <root>
        <mxCell id="4QGAToAOu7VUkIwK07sg-0" />
        <mxCell id="4QGAToAOu7VUkIwK07sg-1" parent="4QGAToAOu7VUkIwK07sg-0" />
        <mxCell id="8_8BIaW9JA32b8O6VMlt-0" value="&lt;p style=&quot;margin: 0px ; margin-top: 4px ; text-align: center&quot;&gt;&lt;i&gt;&amp;lt;&amp;lt;Interface&amp;gt;&amp;gt;&lt;/i&gt;&lt;br&gt;&lt;span style=&quot;text-align: left&quot;&gt;&lt;b&gt;Environment&lt;/b&gt;&lt;/span&gt;&lt;br&gt;&lt;/p&gt;&lt;hr size=&quot;1&quot;&gt;&lt;p style=&quot;margin: 0px ; margin-left: 4px&quot;&gt;+ workspace: Workspace&lt;/p&gt;&lt;p style=&quot;margin: 0px ; margin-left: 4px&quot;&gt;+ output: Output&lt;/p&gt;&lt;p style=&quot;margin: 0px ; margin-left: 4px&quot;&gt;+ toolbox: Toolbox&lt;/p&gt;" style="verticalAlign=top;align=left;overflow=fill;fontSize=12;fontFamily=Helvetica;html=1;" parent="4QGAToAOu7VUkIwK07sg-1" vertex="1">
          <mxGeometry x="140" y="30" width="220" height="110" as="geometry" />
        </mxCell>
        <mxCell id="8_8BIaW9JA32b8O6VMlt-1" style="edgeStyle=orthogonalEdgeStyle;rounded=0;orthogonalLoop=1;jettySize=auto;html=1;exitX=0.5;exitY=0;exitDx=0;exitDy=0;entryX=0.5;entryY=1;entryDx=0;entryDy=0;endArrow=block;endFill=0;endSize=12;" parent="4QGAToAOu7VUkIwK07sg-1" source="8_8BIaW9JA32b8O6VMlt-2" target="8_8BIaW9JA32b8O6VMlt-0" edge="1">
          <mxGeometry relative="1" as="geometry" />
        </mxCell>
        <mxCell id="8_8BIaW9JA32b8O6VMlt-2" value="&lt;p style=&quot;margin: 0px ; margin-top: 4px ; text-align: center&quot;&gt;&lt;i&gt;&amp;lt;&amp;lt;Interface&amp;gt;&amp;gt;&lt;/i&gt;&lt;br&gt;&lt;b&gt;Workspace&lt;/b&gt;&lt;/p&gt;&lt;hr size=&quot;1&quot;&gt;&lt;p style=&quot;margin: 0px ; margin-left: 4px&quot;&gt;&lt;span&gt;+ getBlocks(): Seq[Blocks]&lt;/span&gt;&lt;br&gt;&lt;/p&gt;" style="verticalAlign=top;align=left;overflow=fill;fontSize=12;fontFamily=Helvetica;html=1;" parent="4QGAToAOu7VUkIwK07sg-1" vertex="1">
          <mxGeometry x="10" y="190" width="150" height="80" as="geometry" />
        </mxCell>
        <mxCell id="8_8BIaW9JA32b8O6VMlt-3" style="edgeStyle=orthogonalEdgeStyle;rounded=0;orthogonalLoop=1;jettySize=auto;html=1;exitX=0.5;exitY=0;exitDx=0;exitDy=0;endArrow=block;endFill=0;endSize=12;" parent="4QGAToAOu7VUkIwK07sg-1" source="8_8BIaW9JA32b8O6VMlt-4" edge="1">
          <mxGeometry relative="1" as="geometry">
            <mxPoint x="250" y="140" as="targetPoint" />
          </mxGeometry>
        </mxCell>
        <mxCell id="8_8BIaW9JA32b8O6VMlt-4" value="&lt;p style=&quot;margin: 0px ; margin-top: 4px ; text-align: center&quot;&gt;&lt;i&gt;&amp;lt;&amp;lt;Interface&amp;gt;&amp;gt;&lt;/i&gt;&lt;br&gt;&lt;b&gt;Output&lt;/b&gt;&lt;/p&gt;&lt;hr size=&quot;1&quot;&gt;&lt;p style=&quot;margin: 0px 0px 0px 4px&quot;&gt;+ getCode: String&lt;/p&gt;&lt;p style=&quot;margin: 0px 0px 0px 4px&quot;&gt;+ setCode(code: String)&lt;/p&gt;" style="verticalAlign=top;align=left;overflow=fill;fontSize=12;fontFamily=Helvetica;html=1;" parent="4QGAToAOu7VUkIwK07sg-1" vertex="1">
          <mxGeometry x="180" y="190" width="140" height="80" as="geometry" />
        </mxCell>
        <mxCell id="8_8BIaW9JA32b8O6VMlt-5" style="edgeStyle=orthogonalEdgeStyle;rounded=0;orthogonalLoop=1;jettySize=auto;html=1;exitX=0.5;exitY=0;exitDx=0;exitDy=0;entryX=0.5;entryY=1;entryDx=0;entryDy=0;endArrow=block;endFill=0;endSize=12;" parent="4QGAToAOu7VUkIwK07sg-1" source="8_8BIaW9JA32b8O6VMlt-7" target="8_8BIaW9JA32b8O6VMlt-0" edge="1">
          <mxGeometry relative="1" as="geometry" />
        </mxCell>
        <mxCell id="8_8BIaW9JA32b8O6VMlt-6" style="edgeStyle=orthogonalEdgeStyle;rounded=0;orthogonalLoop=1;jettySize=auto;html=1;exitX=0.5;exitY=1;exitDx=0;exitDy=0;endArrow=none;endFill=0;endSize=12;startArrow=diamond;startFill=1;startSize=12;" parent="4QGAToAOu7VUkIwK07sg-1" source="8_8BIaW9JA32b8O6VMlt-7" target="8_8BIaW9JA32b8O6VMlt-9" edge="1">
          <mxGeometry relative="1" as="geometry" />
        </mxCell>
        <mxCell id="8_8BIaW9JA32b8O6VMlt-7" value="&lt;p style=&quot;margin: 0px ; margin-top: 4px ; text-align: center&quot;&gt;&lt;i&gt;&amp;lt;&amp;lt;Interface&amp;gt;&amp;gt;&lt;/i&gt;&lt;br&gt;&lt;b&gt;Toolbox&lt;/b&gt;&lt;/p&gt;&lt;hr size=&quot;1&quot;&gt;&lt;p style=&quot;margin: 0px ; margin-left: 4px&quot;&gt;+ categories: Seq[Category]&lt;/p&gt;" style="verticalAlign=top;align=left;overflow=fill;fontSize=12;fontFamily=Helvetica;html=1;" parent="4QGAToAOu7VUkIwK07sg-1" vertex="1">
          <mxGeometry x="340" y="190" width="160" height="80" as="geometry" />
        </mxCell>
        <mxCell id="8_8BIaW9JA32b8O6VMlt-8" style="edgeStyle=orthogonalEdgeStyle;rounded=0;orthogonalLoop=1;jettySize=auto;html=1;exitX=0.5;exitY=1;exitDx=0;exitDy=0;entryX=0.5;entryY=0;entryDx=0;entryDy=0;startArrow=diamond;startFill=1;endArrow=none;endFill=0;startSize=12;endSize=12;" parent="4QGAToAOu7VUkIwK07sg-1" source="8_8BIaW9JA32b8O6VMlt-9" target="8_8BIaW9JA32b8O6VMlt-11" edge="1">
          <mxGeometry relative="1" as="geometry" />
        </mxCell>
        <mxCell id="8_8BIaW9JA32b8O6VMlt-9" value="&lt;p style=&quot;margin: 0px ; margin-top: 4px ; text-align: center&quot;&gt;&lt;i&gt;&amp;lt;&amp;lt;Interface&amp;gt;&amp;gt;&lt;/i&gt;&lt;br&gt;&lt;b&gt;Category&lt;/b&gt;&lt;/p&gt;&lt;hr size=&quot;1&quot;&gt;&lt;p style=&quot;margin: 0px ; margin-left: 4px&quot;&gt;+ name: String&lt;/p&gt;&lt;p style=&quot;margin: 0px ; margin-left: 4px&quot;&gt;+ blocks: Seq[BlockType]&lt;/p&gt;" style="verticalAlign=top;align=left;overflow=fill;fontSize=12;fontFamily=Helvetica;html=1;" parent="4QGAToAOu7VUkIwK07sg-1" vertex="1">
          <mxGeometry x="345" y="330" width="150" height="80" as="geometry" />
        </mxCell>
        <mxCell id="8_8BIaW9JA32b8O6VMlt-10" value="n" style="text;html=1;align=center;verticalAlign=middle;resizable=0;points=[];autosize=1;strokeColor=none;fillColor=none;" parent="4QGAToAOu7VUkIwK07sg-1" vertex="1">
          <mxGeometry x="415" y="310" width="20" height="20" as="geometry" />
        </mxCell>
        <mxCell id="8_8BIaW9JA32b8O6VMlt-11" value="&lt;p style=&quot;margin: 0px ; margin-top: 4px ; text-align: center&quot;&gt;&lt;i&gt;&amp;lt;&amp;lt;Interface&amp;gt;&amp;gt;&lt;/i&gt;&lt;br&gt;&lt;b&gt;BlockType&lt;/b&gt;&lt;/p&gt;&lt;p style=&quot;margin: 0px ; margin-left: 4px&quot;&gt;&lt;br&gt;&lt;/p&gt;" style="verticalAlign=top;align=left;overflow=fill;fontSize=12;fontFamily=Helvetica;html=1;" parent="4QGAToAOu7VUkIwK07sg-1" vertex="1">
          <mxGeometry x="375" y="470" width="90" height="40" as="geometry" />
        </mxCell>
        <mxCell id="8_8BIaW9JA32b8O6VMlt-12" value="n" style="text;html=1;align=center;verticalAlign=middle;resizable=0;points=[];autosize=1;strokeColor=none;fillColor=none;" parent="4QGAToAOu7VUkIwK07sg-1" vertex="1">
          <mxGeometry x="415" y="450" width="20" height="20" as="geometry" />
        </mxCell>
      </root>
    </mxGraphModel>
  </diagram>
  <diagram id="wrVGBmPM1VBQ6D7LK7d8" name="Workspace">
    <mxGraphModel dx="1038" dy="543" grid="1" gridSize="10" guides="1" tooltips="1" connect="1" arrows="1" fold="1" page="1" pageScale="1" pageWidth="850" pageHeight="1100" math="0" shadow="0">
      <root>
        <mxCell id="27yFpGJXwl60gT0GwYYW-0" />
        <mxCell id="27yFpGJXwl60gT0GwYYW-1" parent="27yFpGJXwl60gT0GwYYW-0" />
        <mxCell id="ShMDZIaebowUydJjZAJK-8" style="edgeStyle=orthogonalEdgeStyle;rounded=0;orthogonalLoop=1;jettySize=auto;html=1;exitX=0.5;exitY=1;exitDx=0;exitDy=0;startArrow=none;startFill=0;endArrow=none;endFill=0;startSize=12;endSize=12;" parent="27yFpGJXwl60gT0GwYYW-1" source="ShMDZIaebowUydJjZAJK-0" target="ShMDZIaebowUydJjZAJK-7" edge="1">
          <mxGeometry relative="1" as="geometry" />
        </mxCell>
        <mxCell id="ShMDZIaebowUydJjZAJK-0" value="&lt;p style=&quot;margin: 0px ; margin-top: 4px ; text-align: center&quot;&gt;&lt;i&gt;&amp;lt;&amp;lt;Interface&amp;gt;&amp;gt;&lt;/i&gt;&lt;br&gt;&lt;b&gt;Workspace&lt;/b&gt;&lt;/p&gt;&lt;hr size=&quot;1&quot;&gt;&lt;p style=&quot;margin: 0px ; margin-left: 4px&quot;&gt;&lt;span&gt;+ getBlocks(): Seq[Blocks]&lt;/span&gt;&lt;br&gt;&lt;/p&gt;" style="verticalAlign=top;align=left;overflow=fill;fontSize=12;fontFamily=Helvetica;html=1;" parent="27yFpGJXwl60gT0GwYYW-1" vertex="1">
          <mxGeometry x="347.5" y="20" width="150" height="80" as="geometry" />
        </mxCell>
        <mxCell id="ShMDZIaebowUydJjZAJK-1" value="retrieve" style="edgeStyle=orthogonalEdgeStyle;rounded=0;orthogonalLoop=1;jettySize=auto;html=1;exitX=1;exitY=0.5;exitDx=0;exitDy=0;startArrow=none;startFill=0;endArrow=none;endFill=0;startSize=12;endSize=12;" parent="27yFpGJXwl60gT0GwYYW-1" source="ShMDZIaebowUydJjZAJK-3" target="ShMDZIaebowUydJjZAJK-0" edge="1">
          <mxGeometry relative="1" as="geometry" />
        </mxCell>
        <mxCell id="ShMDZIaebowUydJjZAJK-2" value="use" style="edgeStyle=orthogonalEdgeStyle;rounded=0;orthogonalLoop=1;jettySize=auto;html=1;exitX=0.5;exitY=1;exitDx=0;exitDy=0;entryX=0.5;entryY=0;entryDx=0;entryDy=0;startArrow=none;startFill=0;endArrow=none;endFill=0;startSize=12;endSize=12;" parent="27yFpGJXwl60gT0GwYYW-1" source="ShMDZIaebowUydJjZAJK-3" target="ShMDZIaebowUydJjZAJK-5" edge="1">
          <mxGeometry relative="1" as="geometry" />
        </mxCell>
        <mxCell id="ShMDZIaebowUydJjZAJK-3" value="&lt;p style=&quot;margin: 0px ; margin-top: 4px ; text-align: center&quot;&gt;&lt;i&gt;&amp;lt;&amp;lt;Interface&amp;gt;&amp;gt;&lt;/i&gt;&lt;br&gt;&lt;b&gt;WorkspaceLoader&lt;/b&gt;&lt;/p&gt;&lt;hr size=&quot;1&quot;&gt;&lt;p style=&quot;margin: 0px ; margin-left: 4px&quot;&gt;&lt;span&gt;+ load(path: String): Workspace&lt;/span&gt;&lt;br&gt;&lt;/p&gt;" style="verticalAlign=top;align=left;overflow=fill;fontSize=12;fontFamily=Helvetica;html=1;" parent="27yFpGJXwl60gT0GwYYW-1" vertex="1">
          <mxGeometry x="57.5" y="20" width="180" height="80" as="geometry" />
        </mxCell>
        <mxCell id="ShMDZIaebowUydJjZAJK-4" value="uses" style="edgeStyle=orthogonalEdgeStyle;rounded=0;orthogonalLoop=1;jettySize=auto;html=1;exitX=0.5;exitY=1;exitDx=0;exitDy=0;entryX=0.5;entryY=0;entryDx=0;entryDy=0;startArrow=none;startFill=0;endArrow=none;endFill=0;startSize=12;endSize=12;" parent="27yFpGJXwl60gT0GwYYW-1" source="ShMDZIaebowUydJjZAJK-5" target="ShMDZIaebowUydJjZAJK-6" edge="1">
          <mxGeometry relative="1" as="geometry" />
        </mxCell>
        <mxCell id="ShMDZIaebowUydJjZAJK-5" value="&lt;p style=&quot;margin: 0px ; margin-top: 4px ; text-align: center&quot;&gt;&lt;i&gt;&amp;lt;&amp;lt;Interface&amp;gt;&amp;gt;&lt;/i&gt;&lt;br&gt;&lt;b&gt;WorkspaceParser&lt;/b&gt;&lt;/p&gt;&lt;hr size=&quot;1&quot;&gt;&lt;p style=&quot;margin: 0px ; margin-left: 4px&quot;&gt;&lt;span&gt;+ parse(plain: String): Workspace&lt;/span&gt;&lt;br&gt;&lt;/p&gt;" style="verticalAlign=top;align=left;overflow=fill;fontSize=12;fontFamily=Helvetica;html=1;" parent="27yFpGJXwl60gT0GwYYW-1" vertex="1">
          <mxGeometry x="52.5" y="160" width="190" height="80" as="geometry" />
        </mxCell>
        <mxCell id="ShMDZIaebowUydJjZAJK-6" value="&lt;p style=&quot;margin: 0px ; margin-top: 4px ; text-align: center&quot;&gt;&lt;i&gt;&amp;lt;&amp;lt;Interface&amp;gt;&amp;gt;&lt;/i&gt;&lt;br&gt;&lt;b&gt;WorkspaceBuilder&lt;/b&gt;&lt;/p&gt;&lt;hr size=&quot;1&quot;&gt;&lt;p style=&quot;margin: 0px ; margin-left: 4px&quot;&gt;&lt;span&gt;+ addBlock(block: Block): WorkspaceBuilder&lt;/span&gt;&lt;br&gt;&lt;/p&gt;&lt;p style=&quot;margin: 0px ; margin-left: 4px&quot;&gt;&lt;span&gt;+ build(): Workspace&lt;/span&gt;&lt;/p&gt;" style="verticalAlign=top;align=left;overflow=fill;fontSize=12;fontFamily=Helvetica;html=1;" parent="27yFpGJXwl60gT0GwYYW-1" vertex="1">
          <mxGeometry x="20" y="300" width="255" height="80" as="geometry" />
        </mxCell>
        <mxCell id="ShMDZIaebowUydJjZAJK-7" value="&lt;p style=&quot;margin: 0px ; margin-top: 4px ; text-align: center&quot;&gt;&lt;i&gt;&amp;lt;&amp;lt;Interface&amp;gt;&amp;gt;&lt;/i&gt;&lt;br&gt;&lt;b&gt;Block&lt;/b&gt;&lt;/p&gt;&lt;p style=&quot;margin: 0px ; margin-left: 4px&quot;&gt;&lt;br&gt;&lt;/p&gt;" style="verticalAlign=top;align=left;overflow=fill;fontSize=12;fontFamily=Helvetica;html=1;" parent="27yFpGJXwl60gT0GwYYW-1" vertex="1">
          <mxGeometry x="361.25" y="150" width="122.5" height="40" as="geometry" />
        </mxCell>
      </root>
    </mxGraphModel>
  </diagram>
  <diagram id="eY5M8h41Icty328VX7jQ" name="Extractor">
    <mxGraphModel dx="2031" dy="2091" grid="1" gridSize="10" guides="1" tooltips="1" connect="1" arrows="1" fold="1" page="1" pageScale="1" pageWidth="850" pageHeight="1100" math="0" shadow="0">
      <root>
        <mxCell id="LAsJfHfRwgbY6HqDWtyr-0" />
        <mxCell id="LAsJfHfRwgbY6HqDWtyr-1" parent="LAsJfHfRwgbY6HqDWtyr-0" />
        <mxCell id="LAsJfHfRwgbY6HqDWtyr-2" value="&lt;p style=&quot;margin: 0px ; margin-top: 4px ; text-align: center&quot;&gt;&lt;i&gt;&amp;lt;&amp;lt;Interface&amp;gt;&amp;gt;&lt;/i&gt;&lt;br&gt;&lt;b&gt;Extractor&lt;/b&gt;&lt;/p&gt;&lt;hr size=&quot;1&quot;&gt;&lt;p style=&quot;margin: 0px ; margin-left: 4px&quot;&gt;&lt;span&gt;+ prepend: String&lt;/span&gt;&lt;br&gt;&lt;/p&gt;&lt;p style=&quot;margin: 0px 0px 0px 4px&quot;&gt;+ append: String&lt;/p&gt;&lt;p style=&quot;margin: 0px 0px 0px 4px&quot;&gt;+ order: Order&lt;/p&gt;&lt;p style=&quot;margin: 0px 0px 0px 4px&quot;&gt;+ concat(extractor: Extractor, join: String): Extractor&lt;/p&gt;&lt;p style=&quot;margin: 0px 0px 0px 4px&quot;&gt;+ extract(block: Block): String&lt;/p&gt;" style="verticalAlign=top;align=left;overflow=fill;fontSize=12;fontFamily=Helvetica;html=1;" vertex="1" parent="LAsJfHfRwgbY6HqDWtyr-1">
          <mxGeometry x="279" y="-1030" width="280" height="140" as="geometry" />
        </mxCell>
        <mxCell id="LAsJfHfRwgbY6HqDWtyr-3" style="edgeStyle=orthogonalEdgeStyle;rounded=0;orthogonalLoop=1;jettySize=auto;html=1;exitX=0.5;exitY=0;exitDx=0;exitDy=0;entryX=0.5;entryY=1;entryDx=0;entryDy=0;startArrow=none;startFill=0;endArrow=block;endFill=0;startSize=12;endSize=12;" edge="1" parent="LAsJfHfRwgbY6HqDWtyr-1" source="LAsJfHfRwgbY6HqDWtyr-4" target="LAsJfHfRwgbY6HqDWtyr-2">
          <mxGeometry relative="1" as="geometry" />
        </mxCell>
        <mxCell id="LAsJfHfRwgbY6HqDWtyr-9" value="retrieve" style="edgeStyle=orthogonalEdgeStyle;rounded=0;orthogonalLoop=1;jettySize=auto;html=1;exitX=0.5;exitY=1;exitDx=0;exitDy=0;entryX=0.5;entryY=0;entryDx=0;entryDy=0;startArrow=none;startFill=0;endArrow=none;endFill=0;startSize=12;endSize=12;" edge="1" parent="LAsJfHfRwgbY6HqDWtyr-1" source="LAsJfHfRwgbY6HqDWtyr-4" target="LAsJfHfRwgbY6HqDWtyr-8">
          <mxGeometry relative="1" as="geometry" />
        </mxCell>
        <mxCell id="LAsJfHfRwgbY6HqDWtyr-4" value="&lt;p style=&quot;margin: 0px ; margin-top: 4px ; text-align: center&quot;&gt;&lt;i&gt;&amp;lt;&amp;lt;Interface&amp;gt;&amp;gt;&lt;/i&gt;&lt;br&gt;&lt;b&gt;FieldExtractor&lt;/b&gt;&lt;/p&gt;&lt;hr size=&quot;1&quot;&gt;&lt;p style=&quot;margin: 0px ; margin-left: 4px&quot;&gt;+ fieldName: String&lt;/p&gt;&lt;p style=&quot;margin: 0px ; margin-left: 4px&quot;&gt;&lt;br&gt;&lt;/p&gt;" style="verticalAlign=top;align=left;overflow=fill;fontSize=12;fontFamily=Helvetica;html=1;" vertex="1" parent="LAsJfHfRwgbY6HqDWtyr-1">
          <mxGeometry x="159" y="-810" width="150" height="70" as="geometry" />
        </mxCell>
        <mxCell id="LAsJfHfRwgbY6HqDWtyr-6" style="edgeStyle=orthogonalEdgeStyle;rounded=0;orthogonalLoop=1;jettySize=auto;html=1;exitX=0.5;exitY=0;exitDx=0;exitDy=0;entryX=0.5;entryY=1;entryDx=0;entryDy=0;startArrow=none;startFill=0;endArrow=block;endFill=0;startSize=12;endSize=12;" edge="1" parent="LAsJfHfRwgbY6HqDWtyr-1" source="LAsJfHfRwgbY6HqDWtyr-5" target="LAsJfHfRwgbY6HqDWtyr-2">
          <mxGeometry relative="1" as="geometry" />
        </mxCell>
        <mxCell id="LAsJfHfRwgbY6HqDWtyr-11" value="retrieve" style="edgeStyle=orthogonalEdgeStyle;rounded=0;orthogonalLoop=1;jettySize=auto;html=1;exitX=0.5;exitY=1;exitDx=0;exitDy=0;entryX=0.5;entryY=0;entryDx=0;entryDy=0;startArrow=none;startFill=0;endArrow=none;endFill=0;startSize=12;endSize=12;" edge="1" parent="LAsJfHfRwgbY6HqDWtyr-1" source="LAsJfHfRwgbY6HqDWtyr-5" target="LAsJfHfRwgbY6HqDWtyr-10">
          <mxGeometry relative="1" as="geometry" />
        </mxCell>
        <mxCell id="LAsJfHfRwgbY6HqDWtyr-5" value="&lt;p style=&quot;margin: 0px ; margin-top: 4px ; text-align: center&quot;&gt;&lt;i&gt;&amp;lt;&amp;lt;Interface&amp;gt;&amp;gt;&lt;/i&gt;&lt;br&gt;&lt;b&gt;InputExtractor&lt;/b&gt;&lt;/p&gt;&lt;hr size=&quot;1&quot;&gt;&lt;p style=&quot;margin: 0px ; margin-left: 4px&quot;&gt;+ inputName: String&lt;/p&gt;&lt;p style=&quot;margin: 0px ; margin-left: 4px&quot;&gt;&lt;br&gt;&lt;/p&gt;" style="verticalAlign=top;align=left;overflow=fill;fontSize=12;fontFamily=Helvetica;html=1;" vertex="1" parent="LAsJfHfRwgbY6HqDWtyr-1">
          <mxGeometry x="539" y="-810" width="150" height="70" as="geometry" />
        </mxCell>
        <mxCell id="LAsJfHfRwgbY6HqDWtyr-12" style="edgeStyle=orthogonalEdgeStyle;rounded=0;orthogonalLoop=1;jettySize=auto;html=1;exitX=0.5;exitY=0;exitDx=0;exitDy=0;entryX=0.5;entryY=1;entryDx=0;entryDy=0;startArrow=block;startFill=0;endArrow=none;endFill=0;startSize=12;endSize=12;" edge="1" parent="LAsJfHfRwgbY6HqDWtyr-1" source="LAsJfHfRwgbY6HqDWtyr-7" target="LAsJfHfRwgbY6HqDWtyr-8">
          <mxGeometry relative="1" as="geometry" />
        </mxCell>
        <mxCell id="LAsJfHfRwgbY6HqDWtyr-13" style="edgeStyle=orthogonalEdgeStyle;rounded=0;orthogonalLoop=1;jettySize=auto;html=1;exitX=0.5;exitY=0;exitDx=0;exitDy=0;entryX=0.5;entryY=1;entryDx=0;entryDy=0;startArrow=block;startFill=0;endArrow=none;endFill=0;startSize=12;endSize=12;" edge="1" parent="LAsJfHfRwgbY6HqDWtyr-1" source="LAsJfHfRwgbY6HqDWtyr-7" target="LAsJfHfRwgbY6HqDWtyr-10">
          <mxGeometry relative="1" as="geometry" />
        </mxCell>
        <mxCell id="LAsJfHfRwgbY6HqDWtyr-7" value="&lt;p style=&quot;margin: 0px ; margin-top: 4px ; text-align: center&quot;&gt;&lt;i&gt;&amp;lt;&amp;lt;Interface&amp;gt;&amp;gt;&lt;/i&gt;&lt;br&gt;&lt;b&gt;AbstractExtractorBuilder&lt;/b&gt;&lt;/p&gt;&lt;hr size=&quot;1&quot;&gt;&lt;p style=&quot;margin: 0px ; margin-left: 4px&quot;&gt;+ withAppend(append: String): AbstractExtractorBuilder&lt;/p&gt;&lt;p style=&quot;margin: 0px ; margin-left: 4px&quot;&gt;+ withPrepend(prepend: String): AbstractExtractorBuilder&lt;br&gt;&lt;/p&gt;&lt;p style=&quot;margin: 0px ; margin-left: 4px&quot;&gt;+ withOrder(order: Order): AbstractExtractorBuilder&lt;/p&gt;&lt;p style=&quot;margin: 0px ; margin-left: 4px&quot;&gt;+ build(): Extractor&lt;/p&gt;&lt;p style=&quot;margin: 0px ; margin-left: 4px&quot;&gt;&lt;br&gt;&lt;/p&gt;" style="verticalAlign=top;align=left;overflow=fill;fontSize=12;fontFamily=Helvetica;html=1;" vertex="1" parent="LAsJfHfRwgbY6HqDWtyr-1">
          <mxGeometry x="254" y="-520" width="330" height="110" as="geometry" />
        </mxCell>
        <mxCell id="LAsJfHfRwgbY6HqDWtyr-8" value="&lt;p style=&quot;margin: 0px ; margin-top: 4px ; text-align: center&quot;&gt;&lt;i&gt;&amp;lt;&amp;lt;Interface&amp;gt;&amp;gt;&lt;/i&gt;&lt;br&gt;&lt;b&gt;FieldExtractorBuilder&lt;/b&gt;&lt;/p&gt;&lt;hr size=&quot;1&quot;&gt;&lt;p style=&quot;margin: 0px ; margin-left: 4px&quot;&gt;+ withFieldName(fieldName: String): FieldExtractorBuilder&lt;/p&gt;&lt;p style=&quot;margin: 0px ; margin-left: 4px&quot;&gt;+ build(): FieldExtractor&lt;/p&gt;&lt;p style=&quot;margin: 0px ; margin-left: 4px&quot;&gt;&lt;br&gt;&lt;/p&gt;" style="verticalAlign=top;align=left;overflow=fill;fontSize=12;fontFamily=Helvetica;html=1;" vertex="1" parent="LAsJfHfRwgbY6HqDWtyr-1">
          <mxGeometry x="74" y="-680" width="320" height="80" as="geometry" />
        </mxCell>
        <mxCell id="LAsJfHfRwgbY6HqDWtyr-10" value="&lt;p style=&quot;margin: 0px ; margin-top: 4px ; text-align: center&quot;&gt;&lt;i&gt;&amp;lt;&amp;lt;Interface&amp;gt;&amp;gt;&lt;/i&gt;&lt;br&gt;&lt;b&gt;InputExtractorBuilder&lt;/b&gt;&lt;/p&gt;&lt;hr size=&quot;1&quot;&gt;&lt;p style=&quot;margin: 0px ; margin-left: 4px&quot;&gt;+ withInputName(inputName: String): InputExtractorBuilder&lt;/p&gt;&lt;p style=&quot;margin: 0px ; margin-left: 4px&quot;&gt;+ build(): InputExtractor&lt;/p&gt;&lt;p style=&quot;margin: 0px ; margin-left: 4px&quot;&gt;&lt;br&gt;&lt;/p&gt;" style="verticalAlign=top;align=left;overflow=fill;fontSize=12;fontFamily=Helvetica;html=1;" vertex="1" parent="LAsJfHfRwgbY6HqDWtyr-1">
          <mxGeometry x="452.75" y="-680" width="322.5" height="80" as="geometry" />
        </mxCell>
      </root>
    </mxGraphModel>
  </diagram>
  <diagram id="JVw6i-R5WaK6n17hkVhj" name="Block">
    <mxGraphModel dx="1185" dy="632" grid="1" gridSize="10" guides="1" tooltips="1" connect="1" arrows="1" fold="1" page="1" pageScale="1" pageWidth="850" pageHeight="1100" math="0" shadow="0">
      <root>
        <mxCell id="3Yrasr21hxmbtuju-Q_k-0" />
        <mxCell id="3Yrasr21hxmbtuju-Q_k-1" parent="3Yrasr21hxmbtuju-Q_k-0" />
        <mxCell id="OByhOd9f3MMGcagqu1Zy-12" style="edgeStyle=orthogonalEdgeStyle;rounded=0;orthogonalLoop=1;jettySize=auto;html=1;exitX=0;exitY=0.5;exitDx=0;exitDy=0;startArrow=diamond;startFill=0;endArrow=none;endFill=0;startSize=12;endSize=12;" parent="3Yrasr21hxmbtuju-Q_k-1" source="3Yrasr21hxmbtuju-Q_k-2" target="3Yrasr21hxmbtuju-Q_k-9" edge="1">
          <mxGeometry relative="1" as="geometry" />
        </mxCell>
        <mxCell id="OByhOd9f3MMGcagqu1Zy-13" style="edgeStyle=orthogonalEdgeStyle;rounded=0;orthogonalLoop=1;jettySize=auto;html=1;exitX=0;exitY=0.75;exitDx=0;exitDy=0;entryX=0.5;entryY=0;entryDx=0;entryDy=0;startArrow=diamond;startFill=0;endArrow=none;endFill=0;startSize=12;endSize=12;" parent="3Yrasr21hxmbtuju-Q_k-1" source="3Yrasr21hxmbtuju-Q_k-2" target="3Yrasr21hxmbtuju-Q_k-11" edge="1">
          <mxGeometry relative="1" as="geometry" />
        </mxCell>
        <mxCell id="OByhOd9f3MMGcagqu1Zy-14" style="edgeStyle=orthogonalEdgeStyle;rounded=0;orthogonalLoop=1;jettySize=auto;html=1;exitX=1;exitY=0.5;exitDx=0;exitDy=0;entryX=0;entryY=0.5;entryDx=0;entryDy=0;startArrow=none;startFill=0;endArrow=none;endFill=0;startSize=12;endSize=12;" parent="3Yrasr21hxmbtuju-Q_k-1" source="3Yrasr21hxmbtuju-Q_k-2" target="OByhOd9f3MMGcagqu1Zy-5" edge="1">
          <mxGeometry relative="1" as="geometry" />
        </mxCell>
        <mxCell id="3Yrasr21hxmbtuju-Q_k-2" value="&lt;p style=&quot;margin: 0px ; margin-top: 4px ; text-align: center&quot;&gt;&lt;i&gt;&amp;lt;&amp;lt;Interface&amp;gt;&amp;gt;&lt;/i&gt;&lt;br&gt;&lt;b&gt;Block&lt;/b&gt;&lt;/p&gt;&lt;hr size=&quot;1&quot;&gt;&lt;p style=&quot;margin: 0px ; margin-left: 4px&quot;&gt;+ type: BlockType&lt;/p&gt;&lt;p style=&quot;margin: 0px ; margin-left: 4px&quot;&gt;+ getField(fieldName: String): Field&lt;/p&gt;&lt;p style=&quot;margin: 0px ; margin-left: 4px&quot;&gt;+ getValueInput(inputName: String): Block&lt;/p&gt;&lt;p style=&quot;margin: 0px ; margin-left: 4px&quot;&gt;+ getStatementInput(statementInputName: String): Statement&lt;/p&gt;" style="verticalAlign=top;align=left;overflow=fill;fontSize=12;fontFamily=Helvetica;html=1;" parent="3Yrasr21hxmbtuju-Q_k-1" vertex="1">
          <mxGeometry x="225" y="200" width="355" height="130" as="geometry" />
        </mxCell>
        <mxCell id="3Yrasr21hxmbtuju-Q_k-7" value="retrieve" style="edgeStyle=orthogonalEdgeStyle;rounded=0;orthogonalLoop=1;jettySize=auto;html=1;exitX=0.5;exitY=1;exitDx=0;exitDy=0;entryX=0.5;entryY=0;entryDx=0;entryDy=0;startArrow=none;startFill=0;endArrow=none;endFill=0;startSize=12;endSize=12;" parent="3Yrasr21hxmbtuju-Q_k-1" source="3Yrasr21hxmbtuju-Q_k-8" target="3Yrasr21hxmbtuju-Q_k-2" edge="1">
          <mxGeometry relative="1" as="geometry" />
        </mxCell>
        <mxCell id="3Yrasr21hxmbtuju-Q_k-8" value="&lt;p style=&quot;margin: 0px ; margin-top: 4px ; text-align: center&quot;&gt;&lt;i&gt;&amp;lt;&amp;lt;Interface&amp;gt;&amp;gt;&lt;/i&gt;&lt;br&gt;&lt;b&gt;BlockBuilder&lt;/b&gt;&lt;/p&gt;&lt;hr size=&quot;1&quot;&gt;&lt;p style=&quot;margin: 0px ; margin-left: 4px&quot;&gt;+ withType(blockType: BlockType): BlockBuilder&lt;/p&gt;&lt;p style=&quot;margin: 0px ; margin-left: 4px&quot;&gt;+ withField(fieldName: String, field: Field): BlockBuilder&lt;/p&gt;&lt;p style=&quot;margin: 0px ; margin-left: 4px&quot;&gt;+ withValueInput(valueInputName: String, valueInput: Block): BlockBuilder&lt;/p&gt;&lt;p style=&quot;margin: 0px ; margin-left: 4px&quot;&gt;+ withStatementInput(statementInputName: String, statementInput: Statement): BlockBuilder&lt;/p&gt;&lt;p style=&quot;margin: 0px ; margin-left: 4px&quot;&gt;+ build(): Block&lt;/p&gt;" style="verticalAlign=top;align=left;overflow=fill;fontSize=12;fontFamily=Helvetica;html=1;" parent="3Yrasr21hxmbtuju-Q_k-1" vertex="1">
          <mxGeometry x="148.13" y="20" width="508.75" height="130" as="geometry" />
        </mxCell>
        <mxCell id="3Yrasr21hxmbtuju-Q_k-9" value="&lt;p style=&quot;margin: 0px ; margin-top: 4px ; text-align: center&quot;&gt;&lt;i&gt;&amp;lt;&amp;lt;Interface&amp;gt;&amp;gt;&lt;/i&gt;&lt;br&gt;&lt;b&gt;Field&lt;/b&gt;&lt;/p&gt;&lt;hr size=&quot;1&quot;&gt;&lt;p style=&quot;margin: 0px ; margin-left: 4px&quot;&gt;+ name: String&lt;/p&gt;&lt;p style=&quot;margin: 0px ; margin-left: 4px&quot;&gt;+ value: String&lt;/p&gt;" style="verticalAlign=top;align=left;overflow=fill;fontSize=12;fontFamily=Helvetica;html=1;" parent="3Yrasr21hxmbtuju-Q_k-1" vertex="1">
          <mxGeometry x="40" y="215" width="100" height="80" as="geometry" />
        </mxCell>
        <mxCell id="3Yrasr21hxmbtuju-Q_k-13" value="sequence of" style="edgeStyle=orthogonalEdgeStyle;rounded=0;orthogonalLoop=1;jettySize=auto;html=1;entryX=0.25;entryY=1;entryDx=0;entryDy=0;startArrow=diamond;startFill=0;endArrow=none;endFill=0;startSize=12;endSize=12;exitX=1;exitY=0.5;exitDx=0;exitDy=0;" parent="3Yrasr21hxmbtuju-Q_k-1" source="3Yrasr21hxmbtuju-Q_k-11" target="3Yrasr21hxmbtuju-Q_k-2" edge="1">
          <mxGeometry x="0.5761" relative="1" as="geometry">
            <mxPoint x="580" y="380" as="sourcePoint" />
            <mxPoint as="offset" />
          </mxGeometry>
        </mxCell>
        <mxCell id="3Yrasr21hxmbtuju-Q_k-11" value="&lt;p style=&quot;margin: 0px ; margin-top: 4px ; text-align: center&quot;&gt;&lt;i&gt;&amp;lt;&amp;lt;Interface&amp;gt;&amp;gt;&lt;/i&gt;&lt;br&gt;&lt;b&gt;Statement&lt;/b&gt;&lt;/p&gt;&lt;hr size=&quot;1&quot;&gt;&lt;p style=&quot;margin: 0px ; margin-left: 4px&quot;&gt;+ name: String&lt;/p&gt;&lt;p style=&quot;margin: 0px ; margin-left: 4px&quot;&gt;+ blocks: Seq[Block]&lt;/p&gt;" style="verticalAlign=top;align=left;overflow=fill;fontSize=12;fontFamily=Helvetica;html=1;" parent="3Yrasr21hxmbtuju-Q_k-1" vertex="1">
          <mxGeometry x="90" y="350" width="150" height="80" as="geometry" />
        </mxCell>
        <mxCell id="3Yrasr21hxmbtuju-Q_k-15" value="&amp;lt;&amp;lt;ordered&amp;gt;&amp;gt;" style="text;html=1;align=center;verticalAlign=middle;resizable=0;points=[];autosize=1;strokeColor=none;fillColor=none;" parent="3Yrasr21hxmbtuju-Q_k-1" vertex="1">
          <mxGeometry x="250" y="390" width="80" height="20" as="geometry" />
        </mxCell>
        <mxCell id="3Yrasr21hxmbtuju-Q_k-16" value="n" style="text;html=1;align=center;verticalAlign=middle;resizable=0;points=[];autosize=1;strokeColor=none;fillColor=none;" parent="3Yrasr21hxmbtuju-Q_k-1" vertex="1">
          <mxGeometry x="320" y="320" width="20" height="20" as="geometry" />
        </mxCell>
        <mxCell id="OByhOd9f3MMGcagqu1Zy-0" value="retrieve" style="edgeStyle=orthogonalEdgeStyle;rounded=0;orthogonalLoop=1;jettySize=auto;html=1;exitX=1;exitY=0.5;exitDx=0;exitDy=0;entryX=0;entryY=0.5;entryDx=0;entryDy=0;" parent="3Yrasr21hxmbtuju-Q_k-1" source="OByhOd9f3MMGcagqu1Zy-1" target="OByhOd9f3MMGcagqu1Zy-2" edge="1">
          <mxGeometry relative="1" as="geometry" />
        </mxCell>
        <mxCell id="OByhOd9f3MMGcagqu1Zy-1" value="&lt;p style=&quot;margin: 0px ; margin-top: 4px ; text-align: center&quot;&gt;&lt;i&gt;&amp;lt;&amp;lt;Interface&amp;gt;&amp;gt;&lt;/i&gt;&lt;br&gt;&lt;b&gt;Generable&lt;/b&gt;&lt;/p&gt;&lt;hr size=&quot;1&quot;&gt;&lt;p style=&quot;margin: 0px ; margin-left: 4px&quot;&gt;+ generator: Generator&lt;/p&gt;" style="verticalAlign=top;align=left;overflow=fill;fontSize=12;fontFamily=Helvetica;html=1;" parent="3Yrasr21hxmbtuju-Q_k-1" vertex="1">
          <mxGeometry x="720" y="75" width="140" height="70" as="geometry" />
        </mxCell>
        <mxCell id="OByhOd9f3MMGcagqu1Zy-2" value="&lt;p style=&quot;margin: 0px ; margin-top: 4px ; text-align: center&quot;&gt;&lt;i&gt;&amp;lt;&amp;lt;Interface&amp;gt;&amp;gt;&lt;/i&gt;&lt;br&gt;&lt;b&gt;Generator&lt;/b&gt;&lt;/p&gt;&lt;p style=&quot;margin: 0px ; margin-top: 4px ; text-align: center&quot;&gt;alias for:&lt;/p&gt;&lt;p style=&quot;margin: 0px ; margin-top: 4px ; text-align: center&quot;&gt;js.Function1[Block, js.Tuple[String, Order]]&lt;/p&gt;" style="verticalAlign=top;align=left;overflow=fill;fontSize=12;fontFamily=Helvetica;html=1;" parent="3Yrasr21hxmbtuju-Q_k-1" vertex="1">
          <mxGeometry x="950" y="70" width="260" height="80" as="geometry" />
        </mxCell>
        <mxCell id="OByhOd9f3MMGcagqu1Zy-3" value="extends" style="edgeStyle=orthogonalEdgeStyle;rounded=0;orthogonalLoop=1;jettySize=auto;html=1;exitX=0.5;exitY=0;exitDx=0;exitDy=0;entryX=0.5;entryY=1;entryDx=0;entryDy=0;dashed=1;endArrow=block;endFill=0;endSize=12;" parent="3Yrasr21hxmbtuju-Q_k-1" source="OByhOd9f3MMGcagqu1Zy-5" target="OByhOd9f3MMGcagqu1Zy-1" edge="1">
          <mxGeometry relative="1" as="geometry" />
        </mxCell>
        <mxCell id="OByhOd9f3MMGcagqu1Zy-4" value="has" style="edgeStyle=orthogonalEdgeStyle;rounded=0;orthogonalLoop=1;jettySize=auto;html=1;exitX=1;exitY=0.5;exitDx=0;exitDy=0;entryX=0;entryY=0.5;entryDx=0;entryDy=0;endArrow=none;endFill=0;endSize=12;" parent="3Yrasr21hxmbtuju-Q_k-1" source="OByhOd9f3MMGcagqu1Zy-5" target="OByhOd9f3MMGcagqu1Zy-11" edge="1">
          <mxGeometry relative="1" as="geometry" />
        </mxCell>
        <mxCell id="OByhOd9f3MMGcagqu1Zy-5" value="&lt;p style=&quot;margin: 0px ; margin-top: 4px ; text-align: center&quot;&gt;&lt;i&gt;&amp;lt;&amp;lt;Interface&amp;gt;&amp;gt;&lt;/i&gt;&lt;br&gt;&lt;b&gt;BlockType&lt;/b&gt;&lt;/p&gt;&lt;hr size=&quot;1&quot;&gt;&lt;p style=&quot;margin: 0px ; margin-left: 4px&quot;&gt;+ name: String&lt;/p&gt;&lt;p style=&quot;margin: 0px ; margin-left: 4px&quot;&gt;+ order: Order&lt;/p&gt;&lt;p style=&quot;margin: 0px ; margin-left: 4px&quot;&gt;+ fieldNames: Seq[String]&lt;/p&gt;&lt;p style=&quot;margin: 0px ; margin-left: 4px&quot;&gt;+ inputNames: Seq[String]&lt;/p&gt;&lt;p style=&quot;margin: 0px ; margin-left: 4px&quot;&gt;+ statementNames: Seq[String]&lt;/p&gt;" style="verticalAlign=top;align=left;overflow=fill;fontSize=12;fontFamily=Helvetica;html=1;" parent="3Yrasr21hxmbtuju-Q_k-1" vertex="1">
          <mxGeometry x="695" y="200" width="190" height="130" as="geometry" />
        </mxCell>
        <mxCell id="OByhOd9f3MMGcagqu1Zy-6" style="edgeStyle=orthogonalEdgeStyle;rounded=0;orthogonalLoop=1;jettySize=auto;html=1;exitX=0.5;exitY=0;exitDx=0;exitDy=0;endArrow=block;endFill=0;endSize=12;entryX=0.5;entryY=1;entryDx=0;entryDy=0;" parent="3Yrasr21hxmbtuju-Q_k-1" source="OByhOd9f3MMGcagqu1Zy-7" edge="1" target="OByhOd9f3MMGcagqu1Zy-5">
          <mxGeometry relative="1" as="geometry">
            <mxPoint x="790" y="310" as="targetPoint" />
            <Array as="points">
              <mxPoint x="700" y="380" />
              <mxPoint x="790" y="380" />
            </Array>
          </mxGeometry>
        </mxCell>
        <mxCell id="OByhOd9f3MMGcagqu1Zy-7" value="&lt;p style=&quot;margin: 0px ; margin-top: 4px ; text-align: center&quot;&gt;&lt;i&gt;&amp;lt;&amp;lt;Interface&amp;gt;&amp;gt;&lt;/i&gt;&lt;br&gt;&lt;b&gt;UnitBlockType&lt;/b&gt;&lt;/p&gt;" style="verticalAlign=top;align=left;overflow=fill;fontSize=12;fontFamily=Helvetica;html=1;" parent="3Yrasr21hxmbtuju-Q_k-1" vertex="1">
          <mxGeometry x="630" y="430" width="140" height="40" as="geometry" />
        </mxCell>
        <mxCell id="OByhOd9f3MMGcagqu1Zy-8" style="edgeStyle=orthogonalEdgeStyle;rounded=0;orthogonalLoop=1;jettySize=auto;html=1;exitX=0.5;exitY=0;exitDx=0;exitDy=0;entryX=0.5;entryY=1;entryDx=0;entryDy=0;endArrow=block;endFill=0;endSize=12;" parent="3Yrasr21hxmbtuju-Q_k-1" source="OByhOd9f3MMGcagqu1Zy-9" target="OByhOd9f3MMGcagqu1Zy-5" edge="1">
          <mxGeometry relative="1" as="geometry">
            <Array as="points">
              <mxPoint x="880" y="380" />
              <mxPoint x="790" y="380" />
            </Array>
          </mxGeometry>
        </mxCell>
        <mxCell id="OByhOd9f3MMGcagqu1Zy-9" value="&lt;p style=&quot;margin: 0px ; margin-top: 4px ; text-align: center&quot;&gt;&lt;i&gt;&amp;lt;&amp;lt;Interface&amp;gt;&amp;gt;&lt;/i&gt;&lt;br&gt;&lt;b&gt;ValueBlockType&lt;/b&gt;&lt;/p&gt;" style="verticalAlign=top;align=left;overflow=fill;fontSize=12;fontFamily=Helvetica;html=1;" parent="3Yrasr21hxmbtuju-Q_k-1" vertex="1">
          <mxGeometry x="810" y="430" width="140" height="40" as="geometry" />
        </mxCell>
        <mxCell id="OByhOd9f3MMGcagqu1Zy-10" value="(t, e)" style="text;html=1;align=center;verticalAlign=middle;resizable=0;points=[];autosize=1;strokeColor=none;fillColor=none;" parent="3Yrasr21hxmbtuju-Q_k-1" vertex="1">
          <mxGeometry x="790" y="360" width="40" height="20" as="geometry" />
        </mxCell>
        <mxCell id="OByhOd9f3MMGcagqu1Zy-11" value="&lt;p style=&quot;margin: 0px ; margin-top: 4px ; text-align: center&quot;&gt;&lt;i&gt;&amp;lt;&amp;lt;Interface&amp;gt;&amp;gt;&lt;/i&gt;&lt;br&gt;&lt;b&gt;Order&lt;/b&gt;&lt;/p&gt;&lt;p style=&quot;margin: 0px ; margin-top: 4px ; text-align: center&quot;&gt;alias for: Double&lt;/p&gt;" style="verticalAlign=top;align=left;overflow=fill;fontSize=12;fontFamily=Helvetica;html=1;" parent="3Yrasr21hxmbtuju-Q_k-1" vertex="1">
          <mxGeometry x="950" y="235" width="110" height="60" as="geometry" />
        </mxCell>
        <mxCell id="OByhOd9f3MMGcagqu1Zy-16" style="edgeStyle=orthogonalEdgeStyle;rounded=0;orthogonalLoop=1;jettySize=auto;html=1;exitX=0.5;exitY=0;exitDx=0;exitDy=0;entryX=0.5;entryY=1;entryDx=0;entryDy=0;startArrow=none;startFill=0;endArrow=none;endFill=0;startSize=12;endSize=12;" parent="3Yrasr21hxmbtuju-Q_k-1" source="OByhOd9f3MMGcagqu1Zy-15" target="3Yrasr21hxmbtuju-Q_k-11" edge="1">
          <mxGeometry relative="1" as="geometry" />
        </mxCell>
        <mxCell id="OByhOd9f3MMGcagqu1Zy-15" value="&lt;p style=&quot;margin: 0px ; margin-top: 4px ; text-align: center&quot;&gt;&lt;i&gt;&amp;lt;&amp;lt;Interface&amp;gt;&amp;gt;&lt;/i&gt;&lt;br&gt;&lt;b&gt;StatementBuilder&lt;/b&gt;&lt;/p&gt;&lt;hr size=&quot;1&quot;&gt;&lt;p style=&quot;margin: 0px ; margin-left: 4px&quot;&gt;+ withName(name: String): StatementBuilder&lt;/p&gt;&lt;p style=&quot;margin: 0px ; margin-left: 4px&quot;&gt;+ addBlock(block: Block): StatementBuilder&lt;/p&gt;&lt;p style=&quot;margin: 0px ; margin-left: 4px&quot;&gt;+ build(): StatementBuilder&lt;/p&gt;" style="verticalAlign=top;align=left;overflow=fill;fontSize=12;fontFamily=Helvetica;html=1;" parent="3Yrasr21hxmbtuju-Q_k-1" vertex="1">
          <mxGeometry x="30" y="480" width="270" height="110" as="geometry" />
        </mxCell>
      </root>
    </mxGraphModel>
  </diagram>
  <diagram id="Kgv6VAHd9Np3VVJYfZxO" name="MVC">
    <mxGraphModel dx="823" dy="816" grid="1" gridSize="10" guides="1" tooltips="1" connect="1" arrows="1" fold="1" page="1" pageScale="1" pageWidth="850" pageHeight="1100" math="0" shadow="0">
      <root>
        <mxCell id="ZoVXJtbLsKf8IJBP7dzF-0" />
        <mxCell id="ZoVXJtbLsKf8IJBP7dzF-1" parent="ZoVXJtbLsKf8IJBP7dzF-0" />
        <mxCell id="p7bl3eDCKNPDBGqQdWTf-0" value="&lt;p style=&quot;margin: 0px ; margin-top: 4px ; text-align: center&quot;&gt;&lt;i&gt;&amp;lt;&amp;lt;Interface&amp;gt;&amp;gt;&lt;/i&gt;&lt;br&gt;&lt;b&gt;Model&lt;/b&gt;&lt;/p&gt;&lt;hr size=&quot;1&quot;&gt;&lt;p style=&quot;margin: 0px ; margin-left: 4px&quot;&gt;+ enviroment: Enviroment&lt;/p&gt;" style="verticalAlign=top;align=left;overflow=fill;fontSize=12;fontFamily=Helvetica;html=1;" vertex="1" parent="ZoVXJtbLsKf8IJBP7dzF-1">
          <mxGeometry x="1210" y="90" width="190" height="80" as="geometry" />
        </mxCell>
        <mxCell id="p7bl3eDCKNPDBGqQdWTf-1" style="edgeStyle=orthogonalEdgeStyle;rounded=0;orthogonalLoop=1;jettySize=auto;html=1;exitX=0.5;exitY=0;exitDx=0;exitDy=0;entryX=0.5;entryY=1;entryDx=0;entryDy=0;startArrow=none;startFill=0;endArrow=none;endFill=0;startSize=12;endSize=12;" edge="1" parent="ZoVXJtbLsKf8IJBP7dzF-1" source="p7bl3eDCKNPDBGqQdWTf-2" target="p7bl3eDCKNPDBGqQdWTf-0">
          <mxGeometry relative="1" as="geometry" />
        </mxCell>
        <mxCell id="p7bl3eDCKNPDBGqQdWTf-2" value="&lt;p style=&quot;margin: 0px ; margin-top: 4px ; text-align: center&quot;&gt;&lt;i&gt;&amp;lt;&amp;lt;Interface&amp;gt;&amp;gt;&lt;/i&gt;&lt;br&gt;&lt;b&gt;Controller&lt;/b&gt;&lt;/p&gt;&lt;hr size=&quot;1&quot;&gt;&lt;p style=&quot;margin: 0px ; margin-left: 4px&quot;&gt;&lt;br&gt;&lt;/p&gt;" style="verticalAlign=top;align=left;overflow=fill;fontSize=12;fontFamily=Helvetica;html=1;" vertex="1" parent="ZoVXJtbLsKf8IJBP7dzF-1">
          <mxGeometry x="1239.3800000000006" y="220" width="131.25" height="40" as="geometry" />
        </mxCell>
        <mxCell id="p7bl3eDCKNPDBGqQdWTf-3" style="edgeStyle=orthogonalEdgeStyle;rounded=0;orthogonalLoop=1;jettySize=auto;html=1;exitX=0.5;exitY=0;exitDx=0;exitDy=0;entryX=0.5;entryY=1;entryDx=0;entryDy=0;startArrow=none;startFill=0;endArrow=none;endFill=0;startSize=12;endSize=12;" edge="1" parent="ZoVXJtbLsKf8IJBP7dzF-1" source="p7bl3eDCKNPDBGqQdWTf-6" target="p7bl3eDCKNPDBGqQdWTf-12">
          <mxGeometry relative="1" as="geometry" />
        </mxCell>
        <mxCell id="p7bl3eDCKNPDBGqQdWTf-4" style="edgeStyle=orthogonalEdgeStyle;rounded=0;orthogonalLoop=1;jettySize=auto;html=1;exitX=0.5;exitY=0;exitDx=0;exitDy=0;entryX=0.5;entryY=1;entryDx=0;entryDy=0;startArrow=none;startFill=0;endArrow=none;endFill=0;startSize=12;endSize=12;" edge="1" parent="ZoVXJtbLsKf8IJBP7dzF-1" source="p7bl3eDCKNPDBGqQdWTf-6" target="p7bl3eDCKNPDBGqQdWTf-14">
          <mxGeometry relative="1" as="geometry" />
        </mxCell>
        <mxCell id="p7bl3eDCKNPDBGqQdWTf-5" style="edgeStyle=orthogonalEdgeStyle;rounded=0;orthogonalLoop=1;jettySize=auto;html=1;exitX=0.5;exitY=0;exitDx=0;exitDy=0;entryX=0.5;entryY=1;entryDx=0;entryDy=0;startArrow=none;startFill=0;endArrow=none;endFill=0;startSize=12;endSize=12;" edge="1" parent="ZoVXJtbLsKf8IJBP7dzF-1" source="p7bl3eDCKNPDBGqQdWTf-6" target="p7bl3eDCKNPDBGqQdWTf-18">
          <mxGeometry relative="1" as="geometry" />
        </mxCell>
        <mxCell id="p7bl3eDCKNPDBGqQdWTf-6" value="&lt;p style=&quot;margin: 0px ; margin-top: 4px ; text-align: center&quot;&gt;&lt;i&gt;&amp;lt;&amp;lt;Interface&amp;gt;&amp;gt;&lt;/i&gt;&lt;br&gt;&lt;b&gt;View&lt;/b&gt;&lt;/p&gt;&lt;hr size=&quot;1&quot;&gt;&lt;p style=&quot;margin: 0px ; margin-left: 4px&quot;&gt;&lt;br&gt;&lt;/p&gt;" style="verticalAlign=top;align=left;overflow=fill;fontSize=12;fontFamily=Helvetica;html=1;" vertex="1" parent="ZoVXJtbLsKf8IJBP7dzF-1">
          <mxGeometry x="1215.01" y="700" width="180" height="90" as="geometry" />
        </mxCell>
        <mxCell id="p7bl3eDCKNPDBGqQdWTf-7" style="edgeStyle=orthogonalEdgeStyle;rounded=0;orthogonalLoop=1;jettySize=auto;html=1;exitX=0.5;exitY=0;exitDx=0;exitDy=0;entryX=0.5;entryY=1;entryDx=0;entryDy=0;startArrow=none;startFill=0;endArrow=block;endFill=0;startSize=12;endSize=12;" edge="1" parent="ZoVXJtbLsKf8IJBP7dzF-1" source="p7bl3eDCKNPDBGqQdWTf-19" target="p7bl3eDCKNPDBGqQdWTf-2">
          <mxGeometry relative="1" as="geometry">
            <mxPoint x="1135" y="370" as="sourcePoint" />
          </mxGeometry>
        </mxCell>
        <mxCell id="p7bl3eDCKNPDBGqQdWTf-9" style="edgeStyle=orthogonalEdgeStyle;rounded=0;orthogonalLoop=1;jettySize=auto;html=1;exitX=0.5;exitY=0;exitDx=0;exitDy=0;startArrow=none;startFill=0;endArrow=block;endFill=0;startSize=12;endSize=12;entryX=0.5;entryY=1;entryDx=0;entryDy=0;" edge="1" parent="ZoVXJtbLsKf8IJBP7dzF-1" source="p7bl3eDCKNPDBGqQdWTf-10" target="p7bl3eDCKNPDBGqQdWTf-2">
          <mxGeometry relative="1" as="geometry">
            <mxPoint x="1305" y="270" as="targetPoint" />
          </mxGeometry>
        </mxCell>
        <mxCell id="p7bl3eDCKNPDBGqQdWTf-10" value="&lt;p style=&quot;margin: 0px ; margin-top: 4px ; text-align: center&quot;&gt;&lt;i&gt;&amp;lt;&amp;lt;Interface&amp;gt;&amp;gt;&lt;/i&gt;&lt;br&gt;&lt;b&gt;OutputController&lt;/b&gt;&lt;/p&gt;&lt;hr size=&quot;1&quot;&gt;&lt;p style=&quot;margin: 0px ; margin-left: 4px&quot;&gt;&lt;br&gt;&lt;/p&gt;" style="verticalAlign=top;align=left;overflow=fill;fontSize=12;fontFamily=Helvetica;html=1;" vertex="1" parent="ZoVXJtbLsKf8IJBP7dzF-1">
          <mxGeometry x="1230" y="370" width="150" height="70" as="geometry" />
        </mxCell>
        <mxCell id="p7bl3eDCKNPDBGqQdWTf-11" value="communicate" style="edgeStyle=orthogonalEdgeStyle;rounded=0;orthogonalLoop=1;jettySize=auto;html=1;exitX=0.5;exitY=0;exitDx=0;exitDy=0;entryX=0.5;entryY=1;entryDx=0;entryDy=0;startArrow=none;startFill=0;endArrow=none;endFill=0;startSize=12;endSize=12;" edge="1" parent="ZoVXJtbLsKf8IJBP7dzF-1" source="p7bl3eDCKNPDBGqQdWTf-12" target="p7bl3eDCKNPDBGqQdWTf-19">
          <mxGeometry relative="1" as="geometry">
            <mxPoint x="1135" y="440" as="targetPoint" />
          </mxGeometry>
        </mxCell>
        <mxCell id="p7bl3eDCKNPDBGqQdWTf-12" value="&lt;p style=&quot;margin: 0px ; margin-top: 4px ; text-align: center&quot;&gt;&lt;i&gt;&amp;lt;&amp;lt;Interface&amp;gt;&amp;gt;&lt;/i&gt;&lt;br&gt;&lt;b&gt;WorkspaceView&lt;/b&gt;&lt;/p&gt;&lt;hr size=&quot;1&quot;&gt;&lt;p style=&quot;margin: 0px ; margin-left: 4px&quot;&gt;&lt;br&gt;&lt;/p&gt;" style="verticalAlign=top;align=left;overflow=fill;fontSize=12;fontFamily=Helvetica;html=1;" vertex="1" parent="ZoVXJtbLsKf8IJBP7dzF-1">
          <mxGeometry x="1060" y="550" width="150" height="70" as="geometry" />
        </mxCell>
        <mxCell id="p7bl3eDCKNPDBGqQdWTf-13" style="edgeStyle=orthogonalEdgeStyle;rounded=0;orthogonalLoop=1;jettySize=auto;html=1;exitX=0.5;exitY=0;exitDx=0;exitDy=0;entryX=0.5;entryY=1;entryDx=0;entryDy=0;startArrow=none;startFill=0;endArrow=none;endFill=0;startSize=12;endSize=12;" edge="1" parent="ZoVXJtbLsKf8IJBP7dzF-1" source="p7bl3eDCKNPDBGqQdWTf-14" target="p7bl3eDCKNPDBGqQdWTf-10">
          <mxGeometry relative="1" as="geometry" />
        </mxCell>
        <mxCell id="p7bl3eDCKNPDBGqQdWTf-14" value="&lt;p style=&quot;margin: 0px ; margin-top: 4px ; text-align: center&quot;&gt;&lt;i&gt;&amp;lt;&amp;lt;Interface&amp;gt;&amp;gt;&lt;/i&gt;&lt;br&gt;&lt;b&gt;OutputView&lt;/b&gt;&lt;/p&gt;&lt;hr size=&quot;1&quot;&gt;&lt;p style=&quot;margin: 0px ; margin-left: 4px&quot;&gt;&lt;br&gt;&lt;/p&gt;" style="verticalAlign=top;align=left;overflow=fill;fontSize=12;fontFamily=Helvetica;html=1;" vertex="1" parent="ZoVXJtbLsKf8IJBP7dzF-1">
          <mxGeometry x="1230.01" y="550" width="150" height="70" as="geometry" />
        </mxCell>
        <mxCell id="p7bl3eDCKNPDBGqQdWTf-15" style="edgeStyle=orthogonalEdgeStyle;rounded=0;orthogonalLoop=1;jettySize=auto;html=1;exitX=0.5;exitY=0;exitDx=0;exitDy=0;entryX=0.5;entryY=1;entryDx=0;entryDy=0;startArrow=none;startFill=0;endArrow=block;endFill=0;startSize=12;endSize=12;" edge="1" parent="ZoVXJtbLsKf8IJBP7dzF-1" source="p7bl3eDCKNPDBGqQdWTf-16" target="p7bl3eDCKNPDBGqQdWTf-2">
          <mxGeometry relative="1" as="geometry" />
        </mxCell>
        <mxCell id="p7bl3eDCKNPDBGqQdWTf-16" value="&lt;p style=&quot;margin: 0px ; margin-top: 4px ; text-align: center&quot;&gt;&lt;i&gt;&amp;lt;&amp;lt;Interface&amp;gt;&amp;gt;&lt;/i&gt;&lt;br&gt;&lt;b&gt;ToolboxController&lt;/b&gt;&lt;/p&gt;&lt;hr size=&quot;1&quot;&gt;&lt;p style=&quot;margin: 0px ; margin-left: 4px&quot;&gt;&lt;br&gt;&lt;/p&gt;" style="verticalAlign=top;align=left;overflow=fill;fontSize=12;fontFamily=Helvetica;html=1;" vertex="1" parent="ZoVXJtbLsKf8IJBP7dzF-1">
          <mxGeometry x="1400" y="370" width="150" height="70" as="geometry" />
        </mxCell>
        <mxCell id="p7bl3eDCKNPDBGqQdWTf-17" style="edgeStyle=orthogonalEdgeStyle;rounded=0;orthogonalLoop=1;jettySize=auto;html=1;exitX=0.5;exitY=0;exitDx=0;exitDy=0;entryX=0.5;entryY=1;entryDx=0;entryDy=0;startArrow=none;startFill=0;endArrow=none;endFill=0;startSize=12;endSize=12;" edge="1" parent="ZoVXJtbLsKf8IJBP7dzF-1" source="p7bl3eDCKNPDBGqQdWTf-18" target="p7bl3eDCKNPDBGqQdWTf-16">
          <mxGeometry relative="1" as="geometry" />
        </mxCell>
        <mxCell id="p7bl3eDCKNPDBGqQdWTf-18" value="&lt;p style=&quot;margin: 0px ; margin-top: 4px ; text-align: center&quot;&gt;&lt;i&gt;&amp;lt;&amp;lt;Interface&amp;gt;&amp;gt;&lt;/i&gt;&lt;br&gt;&lt;b&gt;ToolboxView&lt;/b&gt;&lt;/p&gt;&lt;hr size=&quot;1&quot;&gt;&lt;p style=&quot;margin: 0px ; margin-left: 4px&quot;&gt;&lt;br&gt;&lt;/p&gt;" style="verticalAlign=top;align=left;overflow=fill;fontSize=12;fontFamily=Helvetica;html=1;" vertex="1" parent="ZoVXJtbLsKf8IJBP7dzF-1">
          <mxGeometry x="1400" y="550" width="150" height="70" as="geometry" />
        </mxCell>
        <mxCell id="p7bl3eDCKNPDBGqQdWTf-19" value="&lt;p style=&quot;margin: 0px ; margin-top: 4px ; text-align: center&quot;&gt;&lt;i&gt;&amp;lt;&amp;lt;Interface&amp;gt;&amp;gt;&lt;/i&gt;&lt;br&gt;&lt;b&gt;WorkspaceController&lt;/b&gt;&lt;/p&gt;&lt;hr size=&quot;1&quot;&gt;&lt;p style=&quot;margin: 0px ; margin-left: 4px&quot;&gt;&lt;br&gt;&lt;/p&gt;" style="verticalAlign=top;align=left;overflow=fill;fontSize=12;fontFamily=Helvetica;html=1;" vertex="1" parent="ZoVXJtbLsKf8IJBP7dzF-1">
          <mxGeometry x="1060" y="370" width="150" height="70" as="geometry" />
        </mxCell>
      </root>
    </mxGraphModel>
  </diagram>
  <diagram id="STjLhRBjGtTN-yIxftjr" name="Page-6">
    <mxGraphModel dx="335" dy="-522" grid="1" gridSize="10" guides="1" tooltips="1" connect="1" arrows="1" fold="1" page="1" pageScale="1" pageWidth="850" pageHeight="1100" math="0" shadow="0">
      <root>
        <mxCell id="1htUQEbqyA_SoTasLJaj-0" />
        <mxCell id="1htUQEbqyA_SoTasLJaj-1" parent="1htUQEbqyA_SoTasLJaj-0" />
        <mxCell id="1htUQEbqyA_SoTasLJaj-2" style="edgeStyle=orthogonalEdgeStyle;rounded=0;orthogonalLoop=1;jettySize=auto;html=1;exitX=0;exitY=0.5;exitDx=0;exitDy=0;entryX=1;entryY=0.5;entryDx=0;entryDy=0;startArrow=none;startFill=0;endArrow=block;endFill=0;startSize=12;endSize=12;" edge="1" parent="1htUQEbqyA_SoTasLJaj-1" source="1htUQEbqyA_SoTasLJaj-3" target="1htUQEbqyA_SoTasLJaj-4">
          <mxGeometry relative="1" as="geometry" />
        </mxCell>
        <mxCell id="1htUQEbqyA_SoTasLJaj-3" value="&lt;p style=&quot;margin: 0px ; margin-top: 4px ; text-align: center&quot;&gt;&lt;i&gt;&amp;lt;&amp;lt;Interface&amp;gt;&amp;gt;&lt;/i&gt;&lt;br&gt;&lt;b&gt;WorkspaceController&lt;/b&gt;&lt;/p&gt;&lt;hr size=&quot;1&quot;&gt;&lt;p style=&quot;margin: 0px ; margin-left: 4px&quot;&gt;+ addWorkspaceObserver(workspaceObserver: WorkspaceObserver): Unit&lt;/p&gt;&lt;p style=&quot;margin: 0px ; margin-left: 4px&quot;&gt;+ addBlock(block: Block, parent: Block?,&amp;nbsp;&lt;/p&gt;" style="verticalAlign=top;align=left;overflow=fill;fontSize=12;fontFamily=Helvetica;html=1;" vertex="1" parent="1htUQEbqyA_SoTasLJaj-1">
          <mxGeometry x="1090" y="1180" width="410" height="90" as="geometry" />
        </mxCell>
        <mxCell id="1htUQEbqyA_SoTasLJaj-4" value="&lt;p style=&quot;margin: 0px ; margin-top: 4px ; text-align: center&quot;&gt;&lt;i&gt;&amp;lt;&amp;lt;Interface&amp;gt;&amp;gt;&lt;/i&gt;&lt;br&gt;&lt;b&gt;WorkspaceObserver&lt;/b&gt;&lt;/p&gt;&lt;hr size=&quot;1&quot;&gt;&lt;p style=&quot;margin: 0px ; margin-left: 4px&quot;&gt;+ onChange(): Unit&lt;/p&gt;&lt;p style=&quot;margin: 0px ; margin-left: 4px&quot;&gt;// onBlockAdded...&lt;/p&gt;" style="verticalAlign=top;align=left;overflow=fill;fontSize=12;fontFamily=Helvetica;html=1;" vertex="1" parent="1htUQEbqyA_SoTasLJaj-1">
          <mxGeometry x="870" y="1175" width="150" height="100" as="geometry" />
        </mxCell>
      </root>
    </mxGraphModel>
  </diagram>
</mxfile>
